<svg xmlns="http://www.w3.org/2000/svg" viewBox="0 0 200 200">
  <!-- 下のパン -->
  <path d="M30 130 Q100 140 170 130 L170 145 Q100 155 30 145 Z" fill="#DEB887"/>
  <!-- レタス -->
  <path d="M35 125 Q50 115 70 125 Q90 115 110 125 Q130 115 150 125 Q165 115 170 125" fill="#90EE90" stroke="#228B22" stroke-width="1"/>
  <!-- トマト -->
  <ellipse cx="60" cy="115" rx="20" ry="8" fill="#FF6347"/>
  <ellipse cx="100" cy="115" rx="20" ry="8" fill="#FF6347"/>
  <ellipse cx="140" cy="115" rx="20" ry="8" fill="#FF6347"/>
  <!-- ベーコン -->
  <path d="M40 105 Q60 100 80 105 Q100 100 120 105 Q140 100 160 105" stroke="#CD5C5C" stroke-width="6" fill="none"/>
  <path d="M45 100 Q65 95 85 100 Q105 95 125 100 Q145 95 160 100" stroke="#8B0000" stroke-width="2" fill="none"/>
  <!-- レタス上 -->
  <path d="M35 95 Q50 85 70 95 Q90 85 110 95 Q130 85 150 95 Q165 85 170 95" fill="#90EE90" stroke="#228B22" stroke-width="1"/>
  <!-- 上のパン -->
  <path d="M30 95 Q100 85 170 95 L170 75 Q100 60 30 75 Z" fill="#F5DEB3"/>
  <path d="M30 75 Q100 60 170 75" fill="#DEB887"/>
</svg>
