<svg xmlns="http://www.w3.org/2000/svg" viewBox="0 0 200 200">
  <!-- 下のパン -->
  <path d="M30 130 Q100 140 170 130 L170 145 Q100 155 30 145 Z" fill="#DEB887"/>
  <!-- たまごサラダ -->
  <ellipse cx="100" cy="115" rx="60" ry="20" fill="#FFF8DC"/>
  <!-- たまごの黄色い部分 -->
  <ellipse cx="70" cy="112" rx="12" ry="8" fill="#FFD700"/>
  <ellipse cx="100" cy="118" rx="10" ry="6" fill="#FFD700"/>
  <ellipse cx="130" cy="112" rx="11" ry="7" fill="#FFD700"/>
  <!-- マヨネーズのつや -->
  <ellipse cx="85" cy="108" rx="8" ry="4" fill="white" opacity="0.5"/>
  <ellipse cx="115" cy="115" rx="6" ry="3" fill="white" opacity="0.5"/>
  <!-- パセリ -->
  <circle cx="90" cy="105" r="2" fill="#228B22"/>
  <circle cx="110" cy="108" r="1.5" fill="#228B22"/>
  <!-- 上のパン -->
  <path d="M30 105 Q100 95 170 105 L170 85 Q100 70 30 85 Z" fill="#F5DEB3"/>
  <path d="M30 85 Q100 70 170 85" fill="#DEB887"/>
</svg>
