<svg xmlns="http://www.w3.org/2000/svg" viewBox="0 0 200 200">
  <!-- フランスパン本体 -->
  <ellipse cx="100" cy="115" rx="80" ry="30" fill="#DEB887"/>
  <ellipse cx="100" cy="110" rx="75" ry="25" fill="#F5DEB3"/>
  <!-- クープ（切れ込み） -->
  <path d="M40 105 L55 115" stroke="#CD853F" stroke-width="2"/>
  <path d="M65 100 L80 112" stroke="#CD853F" stroke-width="2"/>
  <path d="M90 98 L105 110" stroke="#CD853F" stroke-width="2"/>
  <path d="M115 100 L130 112" stroke="#CD853F" stroke-width="2"/>
  <path d="M140 105 L155 115" stroke="#CD853F" stroke-width="2"/>
  <!-- 明太子ソース -->
  <path d="M50 108 Q75 102 100 108 Q125 102 150 108" stroke="#FF6B6B" stroke-width="8" fill="none"/>
  <!-- 明太子の粒々 -->
  <circle cx="60" cy="106" r="1.5" fill="#FF4444"/>
  <circle cx="75" cy="104" r="1" fill="#FF4444"/>
  <circle cx="90" cy="106" r="1.5" fill="#FF4444"/>
  <circle cx="105" cy="105" r="1" fill="#FF4444"/>
  <circle cx="120" cy="106" r="1.5" fill="#FF4444"/>
  <circle cx="135" cy="105" r="1" fill="#FF4444"/>
  <!-- バター -->
  <ellipse cx="100" cy="105" rx="15" ry="3" fill="#FFFACD" opacity="0.6"/>
</svg>
