<svg xmlns="http://www.w3.org/2000/svg" viewBox="0 0 200 200">
  <!-- レーズン食パン本体 -->
  <rect x="40" y="60" width="120" height="100" rx="10" fill="#E8D4A8"/>
  <rect x="40" y="50" width="120" height="30" rx="15" fill="#DEB887"/>
  <rect x="50" y="70" width="100" height="80" rx="5" fill="#FFF8DC"/>
  <!-- レーズン -->
  <ellipse cx="70" cy="85" rx="6" ry="4" fill="#4A0E4E"/>
  <ellipse cx="95" cy="95" rx="5" ry="4" fill="#4A0E4E"/>
  <ellipse cx="125" cy="88" rx="6" ry="4" fill="#4A0E4E"/>
  <ellipse cx="60" cy="110" rx="5" ry="4" fill="#4A0E4E"/>
  <ellipse cx="85" cy="118" rx="6" ry="4" fill="#4A0E4E"/>
  <ellipse cx="115" cy="112" rx="5" ry="4" fill="#4A0E4E"/>
  <ellipse cx="140" cy="105" rx="6" ry="4" fill="#4A0E4E"/>
  <ellipse cx="75" cy="135" rx="5" ry="4" fill="#4A0E4E"/>
  <ellipse cx="105" cy="140" rx="6" ry="4" fill="#4A0E4E"/>
  <ellipse cx="130" cy="132" rx="5" ry="4" fill="#4A0E4E"/>
  <!-- レーズンのツヤ -->
  <ellipse cx="68" cy="84" rx="2" ry="1" fill="#6B2E6B" opacity="0.5"/>
  <ellipse cx="123" cy="87" rx="2" ry="1" fill="#6B2E6B" opacity="0.5"/>
  <!-- 上部の焼き色 -->
  <ellipse cx="100" cy="55" rx="50" ry="12" fill="#D2691E" opacity="0.3"/>
</svg>
